# xmcd
#
# Track frame offsets: 
#        150
#        17025
#        36772
#        56342
#        78305
#        95425
#        111940
#        132060
#        152337
#        170884
#
# Disc length: 2503 seconds
#
# Revision: 2
# Processed by: cddbd v1.5.2PL0 Copyright (c) Steve Scherf et al.
# Submitted via: ExactAudioCopy v1.0b1
#
DISCID=7309c50a
DTITLE=Reza - Keyakinan
DYEAR=2002
DGENRE=Pop
TTITLE0=Putus
TTITLE1=Apapun Kau Mau
TTITLE2=Bisa Jadi (duet with Titi DJ)
TTITLE3=Cinta Kita
TTITLE4=Harus Terjadi
TTITLE5=Kau Jadi Milikku (Meski 'Tuk Sementara)
TTITLE6=Persembahan
TTITLE7=Kepastian
TTITLE8=Berharap Tak Berpisah
TTITLE9=Zahwa
EXTD=
EXTT0=
EXTT1=
EXTT2=
EXTT3=
EXTT4=
EXTT5=
EXTT6=
EXTT7=
EXTT8=
EXTT9=
PLAYORDER=
